<svg width="11" height="11" viewBox="0 0 11 11" fill="none" xmlns="http://www.w3.org/2000/svg">
<path d="M3.73022 3.85733L4.03758 3.81471L4.18045 3.53926L5.46531 1.06195C5.46533 1.06191 5.46535 1.06187 5.46537 1.06183C5.46693 1.05886 5.46769 1.0583 5.46728 1.05872C5.46701 1.05899 5.46722 1.05866 5.46862 1.05787C5.47213 1.0559 5.48175 1.0521 5.49644 1.05215C5.51117 1.05219 5.5217 1.0561 5.52637 1.05874L5.52835 1.06001L5.52878 1.06037L5.52882 1.06042L5.52899 1.06064L5.53029 1.06282L5.5303 1.06284L6.8147 3.53926L6.95757 3.81471L7.26493 3.85733L10.1399 4.2559L10.1403 4.25596C10.1431 4.25634 10.1455 4.25678 10.1476 4.25724L8.08282 6.17058L7.84175 6.39396L7.90019 6.71737L8.38944 9.42506C8.38209 9.42955 8.37324 9.43251 8.36492 9.43324C8.35778 9.43387 8.34954 9.43316 8.33787 9.42733L8.33778 9.42728L5.76583 8.14173L5.49757 8.00764L5.22932 8.14173L2.65737 9.42728L2.65552 9.42821C2.64407 9.43398 2.63631 9.43456 2.62977 9.43399C2.62176 9.43329 2.61296 9.43035 2.60559 9.42572L3.09496 6.71737L3.15339 6.39396L2.91233 6.17058L0.847506 4.25724C0.849609 4.25678 0.852035 4.25634 0.854811 4.25596L0.855229 4.2559L3.73022 3.85733ZM8.39216 9.44004L8.98259 9.33336C9.07114 9.8255 8.52605 10.1923 8.06952 9.96397L8.39216 9.44004Z" fill="white" stroke="#7AC751" stroke-width="1.2"/>
</svg>
